<?xml version="1.0" standalone="no"?>
<!DOCTYPE svg PUBLIC "-//W3C//DTD SVG 20010904//EN"
 "http://www.w3.org/TR/2001/REC-SVG-20010904/DTD/svg10.dtd">
<svg version="1.0" xmlns="http://www.w3.org/2000/svg"
 width="1472.000000pt" height="832.000000pt" viewBox="0 0 1472.000000 832.000000"
 preserveAspectRatio="xMidYMid meet">

<g transform="translate(0.000000,832.000000) scale(0.100000,-0.100000)"
fill="#000000" stroke="none">
<path d="M7960 5919 l0 -71 88 -107 c156 -188 256 -315 317 -403 33 -48 63
-87 66 -88 13 0 63 108 139 305 45 115 86 216 92 225 7 12 8 11 3 -5 -56 -165
-153 -404 -199 -490 -77 -145 -349 -535 -373 -535 -2 0 16 26 42 58 87 109
285 406 285 429 0 14 -282 374 -394 503 -17 19 -39 46 -48 60 -16 24 -17 -7
-17 -594 0 -340 -2 -621 -5 -623 -4 -4 -8 -453 -10 -1095 -1 -131 -4 -238 -8
-238 -5 0 -8 -24 -8 -54 l0 -54 806 6 c746 5 807 4 816 -12 14 -25 28 -9 27
32 0 21 -3 31 -7 22 -4 -8 -9 129 -12 305 l-5 320 -291 3 -291 2 -99 -67
c-151 -102 -241 -171 -329 -253 -66 -61 -70 -64 -25 -16 68 72 166 152 291
238 142 99 142 98 13 99 -60 0 -104 2 -99 5 6 2 8 47 6 117 -7 204 -8 823 -2
777 4 -25 7 117 7 314 0 197 -3 350 -7 340 -4 -10 -8 124 -8 298 l-1 317 -380
1 -380 1 0 -72z m400 -2612 c0 -2 -12 -14 -27 -28 l-28 -24 24 28 c23 25 31
32 31 24z m-50 -60 c0 -2 -10 -12 -22 -23 l-23 -19 19 23 c18 21 26 27 26 19z"/>
<path d="M7270 5970 c0 -5 5 -10 11 -10 5 0 7 -5 3 -12 -4 -6 -3 -8 4 -5 5 4
17 4 26 1 18 -7 15 -82 -4 -94 -7 -5 -9 -13 -5 -21 6 -9 4 -11 -8 -6 -8 3 -25
-3 -37 -13 -15 -13 -17 -20 -8 -23 10 -4 10 -6 1 -6 -7 -1 -13 -11 -13 -23 0
-12 -3 -19 -6 -15 -9 9 -28 -13 -40 -48 -6 -19 -16 -29 -27 -29 -9 1 -17 -5
-17 -12 0 -8 -7 -26 -16 -39 -11 -17 -12 -25 -5 -25 7 0 10 -4 6 -10 -3 -5
-13 -6 -22 -3 -11 4 -14 3 -9 -5 4 -7 3 -12 -1 -12 -5 0 -17 -16 -27 -35 -11
-19 -25 -35 -33 -35 -7 0 -13 -7 -13 -15 0 -7 -6 -18 -13 -22 -8 -4 -22 -20
-32 -35 -9 -16 -23 -28 -30 -28 -7 0 -18 -12 -24 -27 -6 -16 -27 -43 -47 -62
-22 -22 -34 -42 -32 -55 2 -13 -2 -20 -9 -18 -7 1 -13 -3 -13 -9 0 -8 -5 -8
-15 1 -12 10 -15 9 -16 -6 -1 -11 -1 -22 0 -26 0 -5 -6 -8 -14 -8 -8 0 -16 -4
-16 -10 -1 -5 -2 -14 -3 -20 0 -5 -5 -10 -11 -11 -21 -2 -45 -20 -40 -30 6 -8
-8 -13 -28 -10 -5 1 -6 -3 -2 -9 3 -5 2 -10 -4 -10 -6 0 -18 -14 -26 -30 -9
-17 -19 -28 -24 -26 -11 7 -51 -31 -51 -48 0 -7 -12 -23 -27 -37 -15 -13 -21
-16 -14 -6 7 9 11 17 9 17 -20 0 -100 -99 -92 -112 4 -7 2 -8 -4 -4 -7 4 -12
2 -12 -4 0 -6 -4 -9 -9 -6 -7 5 -15 -6 -24 -34 -1 -3 -8 -13 -17 -23 -14 -16
-15 -16 -22 0 -6 17 -7 17 -7 1 -1 -10 -10 -22 -22 -28 -12 -7 -18 -18 -15
-26 3 -8 -1 -14 -8 -14 -8 0 -27 -13 -42 -29 -16 -15 -56 -41 -89 -57 -33 -15
-61 -31 -63 -35 -2 -4 -12 -5 -23 -2 -15 4 -22 0 -26 -16 -3 -11 -13 -21 -22
-21 -14 0 -14 2 -1 10 8 5 11 13 6 17 -4 4 -13 1 -19 -8 -16 -21 -97 -33 -210
-31 -67 1 -92 -2 -104 -13 -8 -8 -11 -19 -8 -25 3 -5 4 -10 2 -10 -3 0 -33 46
-68 103 -88 143 -158 247 -168 247 -37 0 -52 -541 -18 -680 40 -166 120 -357
197 -470 23 -34 71 -92 106 -130 73 -77 98 -87 241 -97 l83 -6 0 29 c0 90 -53
296 -110 429 -11 26 -19 50 -17 52 7 6 73 -154 101 -245 14 -46 32 -123 38
-173 14 -102 2 -99 133 -43 107 46 251 133 311 188 l49 45 -67 -1 c-99 0 -199
48 -322 158 -36 33 -50 51 -39 50 10 0 38 -21 63 -46 25 -25 35 -34 23 -20
-26 30 -31 49 -7 29 11 -9 9 0 -7 33 -20 41 -25 45 -45 38 -21 -8 -24 -5 -34
28 -15 56 -12 233 6 320 23 111 80 214 174 315 62 65 76 87 67 96 -9 10 -8 11
6 5 14 -5 58 33 203 177 101 101 184 186 184 189 1 3 172 178 382 390 209 212
392 402 406 422 41 63 28 68 -159 68 -99 0 -159 -4 -159 -10z m77 -52 c-3 -8
-6 -5 -6 6 -1 11 2 17 5 13 3 -3 4 -12 1 -19z m-836 -1031 c-10 -9 -11 -8 -5
6 3 10 9 15 12 12 3 -3 0 -11 -7 -18z m-976 -149 c15 -27 25 -48 22 -48 -7 0
-67 95 -67 105 0 14 15 -5 45 -57z"/>
<path d="M7662 4638 c-9 -9 -12 -73 -12 -225 l0 -213 -67 -2 -68 -2 62 -3 c43
-3 63 -8 67 -19 6 -16 -4 -22 -49 -27 -17 -2 -37 -7 -43 -11 -7 -4 -49 -9 -92
-10 -105 -3 -115 -16 -14 -18 l79 -1 -75 -7 c-41 -4 -88 -13 -104 -21 l-30
-14 30 -6 c20 -4 5 -8 -53 -13 -83 -8 -91 -13 -88 -53 1 -12 -2 -20 -7 -17 -5
4 -12 -5 -16 -17 l-6 -24 -7 25 c-4 16 -7 -3 -8 -51 -2 -128 -6 -137 -60 -145
-25 -3 -53 -13 -62 -20 -9 -8 -35 -16 -59 -19 -23 -2 -50 -10 -59 -18 -26 -22
-90 -44 -171 -57 -65 -11 -72 -14 -52 -23 22 -10 21 -12 -25 -34 -26 -12 -55
-23 -63 -23 -8 0 -23 -7 -33 -14 -18 -14 -18 -14 0 -19 10 -3 -10 -5 -44 -6
-62 -1 -68 -5 -64 -38 1 -7 -15 -15 -36 -18 -31 -5 -93 -28 -113 -43 -2 -2 2
-7 9 -12 10 -6 0 -10 -32 -15 -26 -4 -47 -13 -47 -19 0 -14 -61 -46 -87 -46
-10 0 -14 -6 -10 -20 8 -31 -30 -25 -117 18 -42 21 -76 34 -76 28 1 -24 202
-135 315 -175 185 -65 483 -79 1140 -56 17 1 80 2 140 4 73 2 102 6 85 11 -22
7 -21 8 12 9 l37 1 1 53 c0 28 3 364 6 745 5 722 5 719 -34 680z m-422 -632
c0 -3 -4 -8 -10 -11 -5 -3 -10 -1 -10 4 0 6 5 11 10 11 6 0 10 -2 10 -4z"/>
<path d="M7145 4170 c4 -6 11 -8 16 -5 14 9 11 15 -7 15 -8 0 -12 -5 -9 -10z"/>
<path d="M7338 4113 c7 -3 16 -2 19 1 4 3 -2 6 -13 5 -11 0 -14 -3 -6 -6z"/>
<path d="M9388 3123 c28 -2 76 -2 105 0 28 2 5 3 -53 3 -58 0 -81 -1 -52 -3z"/>
</g>
</svg>
